<svg version="1.1" id="Layer_1" xmlns="http://www.w3.org/2000/svg" xmlns:xlink="http://www.w3.org/1999/xlink" x="0px" y="0px"
	 width="100%" viewBox="0 0 240 240" enable-background="new 0 0 240 240" xml:space="preserve">
<path fill="#3E92CC" opacity="1.000000" stroke="none" 
	d="
M165.000000,241.000000 
	C110.000000,241.000000 55.500008,241.000000 1.000007,241.000000 
	C1.000005,161.000015 1.000005,81.000015 1.000002,1.000018 
	C80.999985,1.000012 160.999969,1.000012 240.999969,1.000006 
	C240.999969,80.999985 240.999969,160.999969 240.999985,240.999969 
	C215.833328,241.000000 190.666672,241.000000 165.000000,241.000000 
M78.004051,89.001526 
	C78.004051,89.001526 77.983406,88.955711 77.469032,89.093086 
	C77.298927,89.388649 77.128830,89.684212 77.005333,90.000763 
	C77.005333,90.000763 76.989265,89.952240 76.340279,89.935715 
	C75.792747,90.273315 75.245224,90.610916 74.216202,91.240707 
	C73.460899,92.067642 72.705589,92.894577 71.511299,94.197197 
	C71.325264,94.794579 71.139229,95.391960 71.001381,96.004799 
	C71.001381,96.004799 70.979393,95.959221 70.465309,96.091278 
	C70.294823,96.389801 70.124329,96.688332 70.006264,96.968262 
	C70.006264,96.968262 69.960983,96.935966 69.370529,97.087830 
	C68.883186,97.716881 68.395844,98.345924 67.972260,98.982368 
	C67.972260,98.982368 67.959610,98.919441 67.453033,99.358543 
	C66.944595,100.566673 66.436165,101.774796 65.981606,103.006187 
	C65.981606,103.006187 65.964813,102.949959 65.425964,103.278015 
	C65.180542,103.852150 64.935127,104.426277 64.243805,105.443146 
	C61.970200,106.625160 59.783020,108.039055 57.399921,108.927292 
	C54.747475,109.915924 51.916656,110.426003 49.035637,112.050667 
	C49.006882,115.549469 48.802078,119.058075 48.996326,122.544449 
	C49.212925,126.432068 49.792217,130.299469 50.930920,134.450394 
	C52.568916,134.741745 54.197903,135.206146 55.846603,135.292038 
	C60.825977,135.551437 64.112579,137.476807 66.844086,142.164734 
	C71.291115,149.796906 77.415962,156.229401 85.962555,160.686172 
	C86.352211,162.791306 86.741859,164.896454 87.078415,167.655365 
	C87.275696,168.500153 87.472984,169.344925 87.646896,170.997238 
	C87.806923,172.332565 87.966942,173.667877 88.087875,175.845764 
	C88.890350,178.187332 89.524391,182.468353 90.522682,182.555054 
	C96.906876,183.109467 103.371712,182.765366 109.807274,182.606232 
	C110.117981,182.598557 110.402946,181.549713 110.959900,180.219376 
	C113.060539,169.512115 113.060539,169.512131 123.799835,169.487732 
	C124.133141,169.486969 124.466461,169.487122 124.799751,169.484055 
	C135.363403,169.386719 135.483566,169.362228 137.556610,179.561401 
	C138.145096,182.456680 139.395706,183.478745 142.213867,183.404221 
	C147.043411,183.276520 151.882889,183.244507 156.710175,183.408508 
	C159.998627,183.520248 160.996658,182.033142 161.156616,178.953049 
	C161.424255,173.799820 162.278900,168.675491 162.505219,163.522263 
	C162.650681,160.209885 163.893356,158.078812 166.627258,156.162903 
	C175.483871,149.956238 181.868011,141.791290 184.860153,131.250961 
	C187.388153,122.345589 187.338120,122.337616 196.731842,121.319389 
	C197.183853,121.270386 197.604721,120.934235 198.245071,120.636497 
	C195.962799,119.290665 193.285141,118.636925 192.901550,117.316658 
	C191.612503,112.879990 189.116104,113.624153 186.379745,115.323227 
	C184.778381,111.173843 183.685745,107.279015 181.817474,103.800804 
	C179.949036,100.322266 177.305008,97.260307 174.758392,93.464485 
	C173.905823,92.628044 173.053238,91.791603 171.749268,90.520134 
	C171.172119,90.330551 170.594955,90.140961 169.994415,89.996071 
	C169.994415,89.996071 170.039459,89.973503 169.898514,89.469864 
	C169.606171,89.298859 169.313843,89.127853 169.060791,88.989990 
	C169.060791,88.989990 169.068100,88.939117 168.903183,88.284042 
	C167.613022,87.497406 166.322845,86.710770 165.021667,85.991943 
	C165.021667,85.991943 165.067001,85.940292 164.854767,85.302650 
	C160.914841,83.238541 156.974915,81.174438 152.310425,78.962311 
	C148.459320,77.730843 144.608231,76.499367 139.937439,75.063675 
	C137.070602,74.674782 134.203751,74.285889 131.443420,73.157578 
	C131.992874,72.346924 132.504944,71.507790 133.097626,70.730095 
	C138.008102,64.286720 137.467468,56.048698 131.781586,50.918907 
	C126.344810,46.013859 118.093529,45.975513 112.643250,50.829952 
	C106.871925,55.970352 106.274872,64.180138 111.083199,70.635796 
	C112.019409,71.892754 112.524033,73.471184 112.360840,74.913322 
	C110.639244,75.015053 108.917641,75.116776 106.382896,75.056114 
	C101.674271,76.633232 96.965652,78.210342 91.689011,79.374283 
	C89.048111,75.063950 87.964874,69.437660 82.000641,67.984131 
	C82.000641,67.984131 82.062973,67.978249 81.661583,67.438515 
	C81.032791,67.212357 80.403992,66.986198 79.307541,67.483139 
	C79.178345,74.310898 79.049141,81.138657 78.961678,88.009567 
	C78.961678,88.009567 78.986336,87.954834 78.479668,88.106361 
	C78.305412,88.398941 78.131165,88.691521 78.004051,89.001526 
z"/>
<path fill="#2A628F" opacity="1.000000" stroke="none" 
	d="
M71.950287,93.721512 
	C72.705589,92.894577 73.460899,92.067642 74.769119,91.028061 
	C75.877777,90.527687 76.433517,90.239967 76.989265,89.952240 
	C76.989265,89.952240 77.005333,90.000763 77.166687,89.833862 
	C77.565430,89.447327 77.783882,89.210243 77.983406,88.955711 
	C77.983406,88.955711 78.004051,89.001526 78.165543,88.835129 
	C78.565338,88.447884 78.785103,88.209923 78.986336,87.954834 
	C78.986336,87.954834 78.961678,88.009567 79.244514,87.832611 
	C79.842003,86.798294 80.436325,85.937576 80.426102,85.084099 
	C80.357674,79.375687 80.160416,73.668823 80.348015,67.968964 
	C81.148361,67.977058 81.605667,67.977654 82.062973,67.978249 
	C82.062973,67.978249 82.000641,67.984131 82.048965,68.334274 
	C83.770172,75.110245 85.443047,81.536079 87.136330,88.040291 
	C92.952782,87.852119 91.750084,83.280380 92.257027,79.787460 
	C96.965652,78.210342 101.674271,76.633232 106.823288,75.509514 
	C107.452370,77.362198 107.641052,78.761482 107.704842,79.234543 
	C118.685898,79.234543 129.007446,79.234543 139.775787,79.234543 
	C139.978714,78.414291 140.367920,76.841087 140.757126,75.267891 
	C144.608231,76.499367 148.459320,77.730843 152.825653,79.325409 
	C157.249603,81.772438 161.158295,83.856361 165.067001,85.940292 
	C165.067001,85.940292 165.021667,85.991943 165.198151,86.238678 
	C166.605804,87.303314 167.836945,88.121216 169.068100,88.939117 
	C169.068100,88.939117 169.060791,88.989990 169.199158,89.154297 
	C169.555939,89.553589 169.789917,89.771896 170.039459,89.973503 
	C170.039459,89.973503 169.994415,89.996071 170.250000,90.153717 
	C171.070618,90.525963 171.635635,90.740555 172.200668,90.955154 
	C173.053238,91.791603 173.905823,92.628044 174.926208,94.122055 
	C182.062515,119.859604 175.746124,136.256241 153.273193,149.525818 
	C132.279907,161.921707 109.598061,164.653732 85.865036,159.853027 
	C77.415962,156.229401 71.291115,149.796906 66.844086,142.164734 
	C64.112579,137.476807 60.825977,135.551437 55.846603,135.292038 
	C54.197903,135.206146 52.568916,134.741745 50.517632,133.830231 
	C49.790726,125.854843 49.477108,118.499626 49.163490,111.144402 
	C51.916656,110.426003 54.747475,109.915924 57.399921,108.927292 
	C59.783020,108.039055 61.970200,106.625160 64.692131,105.008842 
	C65.415245,104.033012 65.690033,103.491486 65.964813,102.949959 
	C65.964813,102.949959 65.981606,103.006187 66.226799,102.792336 
	C66.967865,101.358803 67.463737,100.139122 67.959610,98.919441 
	C67.959610,98.919441 67.972260,98.982368 68.224655,98.868210 
	C68.971695,98.148033 69.466339,97.542000 69.960983,96.935966 
	C69.960983,96.935966 70.006264,96.968262 70.164658,96.820259 
	C70.562500,96.453606 70.781288,96.215927 70.979393,95.959221 
	C70.979393,95.959221 71.001381,96.004799 71.161201,95.744553 
	C71.530777,94.896706 71.740532,94.309113 71.950287,93.721512 
M75.211899,103.836052 
	C75.349319,106.775116 75.018021,110.442757 79.314362,109.982605 
	C80.402924,109.866020 81.740013,106.341171 81.817413,104.338165 
	C81.878510,102.757042 80.182243,101.108017 79.266464,99.489151 
	C77.958450,100.686592 76.650444,101.884033 75.211899,103.836052 
z"/>
<path fill="#18445B" opacity="1.000000" stroke="none" 
	d="
M85.913795,160.269592 
	C109.598061,164.653732 132.279907,161.921707 153.273193,149.525818 
	C175.746124,136.256241 182.062515,119.859604 175.047485,94.397675 
	C177.305008,97.260307 179.949036,100.322266 181.817474,103.800804 
	C183.685745,107.279015 184.778381,111.173843 186.379745,115.323227 
	C189.116104,113.624153 191.612503,112.879990 192.901550,117.316658 
	C193.285141,118.636925 195.962799,119.290665 198.245071,120.636497 
	C197.604721,120.934235 197.183853,121.270386 196.731842,121.319389 
	C187.338120,122.337616 187.388153,122.345589 184.860153,131.250961 
	C181.868011,141.791290 175.483871,149.956238 166.627258,156.162903 
	C163.893356,158.078812 162.650681,160.209885 162.505219,163.522263 
	C162.278900,168.675491 161.424255,173.799820 161.156616,178.953049 
	C160.996658,182.033142 159.998627,183.520248 156.710175,183.408508 
	C151.882889,183.244507 147.043411,183.276520 142.213867,183.404221 
	C139.395706,183.478745 138.145096,182.456680 137.556610,179.561401 
	C135.483566,169.362228 135.363403,169.386719 124.799751,169.484055 
	C124.466461,169.487122 124.133141,169.486969 123.799835,169.487732 
	C113.060539,169.512131 113.060539,169.512115 110.382385,180.606415 
	C107.023209,180.997665 104.241379,181.023468 101.459915,181.001480 
	C96.140671,180.959457 90.092140,182.510513 88.126968,175.003204 
	C87.966942,173.667877 87.806923,172.332565 87.844521,170.362488 
	C87.738602,168.819031 87.435059,167.910309 87.131516,167.001587 
	C86.741859,164.896454 86.352211,162.791306 85.913795,160.269592 
z"/>
<path fill="#D7C417" opacity="1.000000" stroke="none" 
	d="
M113.227730,74.901329 
	C112.524033,73.471184 112.019409,71.892754 111.083199,70.635796 
	C106.274872,64.180138 106.871925,55.970352 112.643250,50.829952 
	C118.093529,45.975513 126.344810,46.013859 131.781586,50.918907 
	C137.467468,56.048698 138.008102,64.286720 133.097626,70.730095 
	C132.504944,71.507790 131.992874,72.346924 131.054611,73.534317 
	C127.295662,75.939796 123.832710,77.005630 119.817436,75.804153 
	C117.718735,75.176155 115.430412,75.181847 113.227730,74.901329 
M114.556740,53.017529 
	C110.073273,58.334503 109.818718,64.545052 113.893661,69.194893 
	C117.487968,73.296288 123.832024,74.091148 128.365723,71.008125 
	C133.713882,67.371269 135.265747,61.414062 132.337677,55.760921 
	C129.223557,49.748531 122.433723,48.476021 114.556740,53.017529 
z"/>
<path fill="#132A3F" opacity="1.000000" stroke="none" 
	d="
M112.794281,74.907326 
	C115.430412,75.181847 117.718735,75.176155 119.817436,75.804153 
	C123.832710,77.005630 127.295662,75.939796 131.001358,73.904030 
	C134.203751,74.285889 137.070602,74.674782 140.347290,75.165787 
	C140.367920,76.841087 139.978714,78.414291 139.775787,79.234543 
	C129.007446,79.234543 118.685898,79.234543 107.704842,79.234543 
	C107.641052,78.761482 107.452370,77.362198 107.229866,75.590706 
	C108.917641,75.116776 110.639244,75.015053 112.794281,74.907326 
z"/>
<path fill="#19455D" opacity="1.000000" stroke="none" 
	d="
M91.973022,79.580872 
	C91.750084,83.280380 92.952782,87.852119 87.136330,88.040291 
	C85.443047,81.536079 83.770172,75.110245 82.056000,68.303772 
	C87.964874,69.437660 89.048111,75.063950 91.973022,79.580872 
z"/>
<path fill="#1A465F" opacity="1.000000" stroke="none" 
	d="
M88.107422,175.424484 
	C90.092140,182.510513 96.140671,180.959457 101.459915,181.001480 
	C104.241379,181.023468 107.023209,180.997665 110.252388,180.989578 
	C110.402946,181.549713 110.117981,182.598557 109.807274,182.606232 
	C103.371712,182.765366 96.906876,183.109467 90.522682,182.555054 
	C89.524391,182.468353 88.890350,178.187332 88.107422,175.424484 
z"/>
<path fill="#275C85" opacity="1.000000" stroke="none" 
	d="
M164.960876,85.621475 
	C161.158295,83.856361 157.249603,81.772438 153.187958,79.399422 
	C156.974915,81.174438 160.914841,83.238541 164.960876,85.621475 
z"/>
<path fill="#255980" opacity="1.000000" stroke="none" 
	d="
M80.004974,67.961456 
	C80.160416,73.668823 80.357674,79.375687 80.426102,85.084099 
	C80.436325,85.937576 79.842003,86.798294 79.223648,87.811035 
	C79.049141,81.138657 79.178345,74.310898 79.611145,67.420456 
	C79.944824,67.558998 79.974899,67.760231 80.004974,67.961456 
z"/>
<path fill="#23557C" opacity="1.000000" stroke="none" 
	d="
M49.099564,111.597534 
	C49.477108,118.499626 49.790726,125.854843 50.158993,133.692871 
	C49.792217,130.299469 49.212925,126.432068 48.996326,122.544449 
	C48.802078,119.058075 49.006882,115.549469 49.099564,111.597534 
z"/>
<path fill="#275C85" opacity="1.000000" stroke="none" 
	d="
M168.985641,88.611580 
	C167.836945,88.121216 166.605804,87.303314 165.203674,86.204773 
	C166.322845,86.710770 167.613022,87.497406 168.985641,88.611580 
z"/>
<path fill="#255980" opacity="1.000000" stroke="none" 
	d="
M67.706314,99.138992 
	C67.463737,100.139122 66.967865,101.358803 66.199860,102.780701 
	C66.436165,101.774796 66.944595,100.566673 67.706314,99.138992 
z"/>
<path fill="#1A465F" opacity="1.000000" stroke="none" 
	d="
M87.104965,167.328476 
	C87.435059,167.910309 87.738602,168.819031 87.856209,169.958740 
	C87.472984,169.344925 87.275696,168.500153 87.104965,167.328476 
z"/>
<path fill="#255980" opacity="1.000000" stroke="none" 
	d="
M69.665756,97.011902 
	C69.466339,97.542000 68.971695,98.148033 68.192780,98.864517 
	C68.395844,98.345924 68.883186,97.716881 69.665756,97.011902 
z"/>
<path fill="#255980" opacity="1.000000" stroke="none" 
	d="
M76.664772,89.943977 
	C76.433517,90.239967 75.877777,90.527687 75.009865,90.881973 
	C75.245224,90.610916 75.792747,90.273315 76.664772,89.943977 
z"/>
<path fill="#275C85" opacity="1.000000" stroke="none" 
	d="
M171.974976,90.737640 
	C171.635635,90.740555 171.070618,90.525963 170.261688,90.131363 
	C170.594955,90.140961 171.172119,90.330551 171.974976,90.737640 
z"/>
<path fill="#255980" opacity="1.000000" stroke="none" 
	d="
M71.730789,93.959351 
	C71.740532,94.309113 71.530777,94.896706 71.137108,95.736824 
	C71.139229,95.391960 71.325264,94.794579 71.730789,93.959351 
z"/>
<path fill="#255980" opacity="1.000000" stroke="none" 
	d="
M65.695389,103.113983 
	C65.690033,103.491486 65.415245,104.033012 64.915085,104.787476 
	C64.935127,104.426277 65.180542,103.852150 65.695389,103.113983 
z"/>
<path fill="#19455D" opacity="1.000000" stroke="none" 
	d="
M80.348015,67.968964 
	C79.974899,67.760231 79.944824,67.558998 79.844971,67.058907 
	C80.403992,66.986198 81.032791,67.212357 81.862274,67.708382 
	C81.605667,67.977654 81.148361,67.977058 80.348015,67.968964 
z"/>
<path fill="#275C85" opacity="1.000000" stroke="none" 
	d="
M169.968994,89.721680 
	C169.789917,89.771896 169.555939,89.553589 169.179504,89.137726 
	C169.313843,89.127853 169.606171,89.298859 169.968994,89.721680 
z"/>
<path fill="#255980" opacity="1.000000" stroke="none" 
	d="
M70.722351,96.025253 
	C70.781288,96.215927 70.562500,96.453606 70.138443,96.829559 
	C70.124329,96.688332 70.294823,96.389801 70.722351,96.025253 
z"/>
<path fill="#255980" opacity="1.000000" stroke="none" 
	d="
M77.726219,89.024399 
	C77.783882,89.210243 77.565430,89.447327 77.143387,89.823372 
	C77.128830,89.684212 77.298927,89.388649 77.726219,89.024399 
z"/>
<path fill="#255980" opacity="1.000000" stroke="none" 
	d="
M78.733002,88.030594 
	C78.785103,88.209923 78.565338,88.447884 78.141968,88.826416 
	C78.131165,88.691521 78.305412,88.398941 78.733002,88.030594 
z"/>
<path fill="#173553" opacity="1.000000" stroke="none" 
	d="
M75.277168,103.458763 
	C76.650444,101.884033 77.958450,100.686592 79.266464,99.489151 
	C80.182243,101.108017 81.878510,102.757042 81.817413,104.338165 
	C81.740013,106.341171 80.402924,109.866020 79.314362,109.982605 
	C75.018021,110.442757 75.349319,106.775116 75.277168,103.458763 
z"/>
<path fill="#BEAB01" opacity="1.000000" stroke="none" 
	d="
M114.857460,52.779385 
	C122.433723,48.476021 129.223557,49.748531 132.337677,55.760921 
	C135.265747,61.414062 133.713882,67.371269 128.365723,71.008125 
	C123.832024,74.091148 117.487968,73.296288 113.893661,69.194893 
	C109.818718,64.545052 110.073273,58.334503 114.857460,52.779385 
M121.734215,68.071671 
	C121.734215,68.071671 122.219856,68.065720 122.219856,68.065720 
	C122.219856,68.065720 122.705528,68.066917 123.311974,68.408882 
	C128.770355,68.040146 131.654251,63.504021 129.448746,58.327503 
	C127.827774,54.522968 124.698906,52.822720 120.559502,53.718422 
	C116.570847,54.581512 113.633408,58.484840 114.438255,62.159599 
	C115.195343,65.616325 116.348465,69.147629 121.734215,68.071671 
z"/>
<path fill="#E2CB01" opacity="1.000000" stroke="none" 
	d="
M121.246941,68.088203 
	C116.348465,69.147629 115.195343,65.616325 114.438255,62.159599 
	C113.633408,58.484840 116.570847,54.581512 120.559502,53.718422 
	C124.698906,52.822720 127.827774,54.522968 129.448746,58.327503 
	C131.654251,63.504021 128.770355,68.040146 123.272736,68.020477 
	C124.044189,66.572029 124.854874,65.511971 125.665558,64.451920 
	C125.239983,64.171684 124.814400,63.891449 124.388824,63.611210 
	C123.341530,65.103539 122.294235,66.595871 121.246941,68.088203 
M121.092575,60.575470 
	C121.579453,60.840687 122.066322,61.105904 122.553192,61.371120 
	C122.635887,61.172653 122.718575,60.974182 122.801262,60.775715 
	C122.237823,60.481258 121.674393,60.186806 121.368820,59.353172 
	C122.339073,58.440758 123.309326,57.528339 124.279579,56.615925 
	C121.168831,56.133778 119.549843,56.933846 121.092575,60.575470 
z"/>
<path fill="#C8B400" opacity="1.000000" stroke="none" 
	d="
M121.490578,68.079941 
	C122.294235,66.595871 123.341530,65.103539 124.388824,63.611210 
	C124.814400,63.891449 125.239983,64.171684 125.665558,64.451920 
	C124.854874,65.511971 124.044189,66.572029 122.969513,67.849503 
	C122.705528,68.066917 122.219856,68.065720 122.219856,68.065720 
	C122.219856,68.065720 121.734215,68.071671 121.490578,68.079941 
z"/>
<path fill="#C8B400" opacity="1.000000" stroke="none" 
	d="
M120.868111,60.140835 
	C119.549843,56.933846 121.168831,56.133778 124.279579,56.615925 
	C123.309326,57.528339 122.339073,58.440758 121.178856,59.684570 
	C120.988892,60.015965 120.868111,60.140835 120.868111,60.140835 
z"/>
<path fill="#C8B400" opacity="1.000000" stroke="none" 
	d="
M121.049927,59.954155 
	C121.674393,60.186806 122.237823,60.481258 122.801262,60.775715 
	C122.718575,60.974182 122.635887,61.172653 122.553192,61.371120 
	C122.066322,61.105904 121.579453,60.840687 120.980347,60.358154 
	C120.868111,60.140835 120.988892,60.015965 121.049927,59.954155 
z"/>
</svg>