<svg version="1.1" id="Layer_1" xmlns="http://www.w3.org/2000/svg" xmlns:xlink="http://www.w3.org/1999/xlink" x="0px" y="0px"
	 width="100%" viewBox="0 0 240 240" enable-background="new 0 0 240 240" xml:space="preserve">
<path fill="#3E92CC" opacity="1.000000" stroke="none" 
	d="
M241.000000,92.000000 
	C241.000000,142.000000 241.000000,191.500000 241.000000,241.000000 
	C161.000000,241.000000 81.000000,241.000000 1.000000,241.000000 
	C1.000000,161.000000 1.000000,81.000000 1.000000,1.000000 
	C81.000000,1.000000 161.000000,1.000000 241.000000,1.000000 
	C241.000000,31.166666 241.000000,61.333332 241.000000,92.000000 
M56.430061,43.500832 
	C55.932285,45.122738 55.070107,46.728439 54.997131,48.369236 
	C54.588829,57.549782 54.371181,66.738808 53.717667,76.504784 
	C50.503170,79.309845 46.643883,81.650009 44.213741,85.020569 
	C39.705505,91.273422 36.093616,98.167053 31.962564,104.701599 
	C31.058712,106.131332 29.705059,107.966599 28.281010,108.257797 
	C22.206797,109.499886 16.028488,110.232933 9.337925,111.755669 
	C9.231045,122.879799 9.105432,134.003845 9.059783,145.128220 
	C9.056767,145.863327 9.663228,146.600906 10.670045,147.722122 
	C12.154670,147.891068 13.654020,147.978241 15.121481,148.242508 
	C23.340395,149.722610 31.818201,147.444397 36.662479,159.353973 
	C41.867580,172.150620 53.917549,180.799652 66.460594,187.743896 
	C67.564087,198.420700 68.585182,209.107880 69.925827,219.754822 
	C70.034332,220.616501 72.320778,221.791977 73.617317,221.820648 
	C82.089729,222.008133 90.570374,221.812241 99.043617,221.979889 
	C101.970558,222.037796 103.281059,220.929443 103.680351,218.145279 
	C104.363907,213.379028 105.313499,208.648590 105.908058,203.872833 
	C106.239922,201.207138 107.134926,200.412689 110.030991,200.474075 
	C119.143509,200.667191 128.269760,200.458435 137.383850,200.180496 
	C140.115051,200.097198 141.558640,200.426849 142.079330,203.612289 
	C143.084717,209.763138 144.683105,215.817093 146.511505,222.052765 
	C146.511505,222.052765 147.006393,222.013336 147.934998,222.147675 
	C157.956802,222.098221 167.978607,222.048767 178.485352,222.031494 
	C178.485352,222.031494 178.951096,221.892624 179.569366,221.392181 
	C180.582260,211.011307 181.796448,200.644119 182.504272,190.242477 
	C182.769714,186.341705 184.239182,184.013763 187.408310,181.809662 
	C202.860931,171.062531 213.848160,157.073288 217.719299,138.224152 
	C219.623428,128.952652 222.417221,126.879318 231.727371,127.656395 
	C233.455658,127.800636 235.251602,127.133865 237.016327,126.841400 
	C236.961716,126.338287 236.907104,125.835175 236.852493,125.332069 
	C236.161850,124.938583 235.481522,124.226952 234.778885,124.204208 
	C230.779251,124.074791 228.005814,123.366623 227.589981,118.209076 
	C227.354721,115.291168 223.982147,115.219299 221.561096,116.922211 
	C220.452759,117.701790 219.666626,118.939468 218.584457,120.135025 
	C217.616959,116.305267 217.042511,112.819939 215.853745,109.558517 
	C212.597351,100.624313 208.815811,91.951958 200.680038,85.274475 
	C187.499573,70.476158 170.106262,63.010025 150.997406,57.083347 
	C145.123886,56.072456 139.250366,55.061565 133.839966,53.489510 
	C142.687881,46.058956 145.161240,35.200851 140.144745,25.811293 
	C135.123383,16.412582 124.361794,11.944282 114.255623,15.061894 
	C104.202667,18.163092 98.030289,27.662731 98.999710,38.567070 
	C99.620102,45.545460 103.659431,50.453003 108.344353,55.212051 
	C104.721611,55.784019 101.098877,56.355991 96.726974,56.807690 
	C89.249046,59.128532 81.771126,61.449371 73.752258,63.315903 
	C73.116081,61.807137 72.523155,60.278374 71.836327,58.793034 
	C68.711494,52.035286 64.549767,46.294445 56.430061,43.500832 
z"/>
<path fill="#2A628F" opacity="1.000000" stroke="none" 
	d="
M9.888164,111.151726 
	C16.028488,110.232933 22.206797,109.499886 28.281010,108.257797 
	C29.705059,107.966599 31.058712,106.131332 31.962564,104.701599 
	C36.093616,98.167053 39.705505,91.273422 44.213741,85.020569 
	C46.643883,81.650009 50.503170,79.309845 54.277489,76.092003 
	C55.222546,72.333954 55.749977,68.997726 55.963303,65.641525 
	C56.402088,58.738220 56.672901,51.824230 57.210278,45.196320 
	C64.937782,54.740852 64.412994,66.292618 65.674660,77.348579 
	C75.447968,74.412224 75.446518,74.412392 74.377487,65.258133 
	C74.319962,64.765602 74.319977,64.266342 74.293198,63.770210 
	C81.771126,61.449371 89.249046,59.128532 97.256516,57.279896 
	C98.057716,60.148067 98.329384,62.544033 98.651955,65.388939 
	C115.302269,60.200169 131.541687,60.769402 146.657181,64.770630 
	C148.700058,61.739185 150.237778,59.457321 151.775513,57.175461 
	C170.106262,63.010025 187.499573,70.476158 200.898499,85.932304 
	C211.694244,110.382988 207.687790,132.108261 191.359192,151.758224 
	C181.500946,163.621719 168.844681,171.924927 154.723053,177.918488 
	C126.357857,189.957367 96.989174,192.733795 66.764557,187.015701 
	C53.917549,180.799652 41.867580,172.150620 36.662479,159.353973 
	C31.818201,147.444397 23.340395,149.722610 15.121481,148.242508 
	C13.654020,147.978241 12.154670,147.891068 10.340907,147.035446 
	C9.970568,134.616425 9.929365,122.884071 9.888164,111.151726 
M59.417358,104.740059 
	C59.509007,104.253632 59.664356,103.769569 59.682541,103.280411 
	C59.886147,97.803230 57.499947,93.456306 54.283909,93.405281 
	C50.788071,93.349831 48.107143,97.911232 49.183239,103.653084 
	C49.657055,106.181274 52.016937,108.355980 53.520508,110.691185 
	C55.416401,108.960892 57.312290,107.230606 59.417358,104.740059 
z"/>
<path fill="#18435B" opacity="1.000000" stroke="none" 
	d="
M66.612579,187.379791 
	C96.989174,192.733795 126.357857,189.957367 154.723053,177.918488 
	C168.844681,171.924927 181.500946,163.621719 191.359192,151.758224 
	C207.687790,132.108261 211.694244,110.382988 201.062408,86.213989 
	C208.815811,91.951958 212.597351,100.624313 215.853745,109.558517 
	C217.042511,112.819939 217.616959,116.305267 218.584457,120.135025 
	C219.666626,118.939468 220.452759,117.701790 221.561096,116.922211 
	C223.982147,115.219299 227.354721,115.291168 227.589981,118.209076 
	C228.005814,123.366623 230.779251,124.074791 234.778885,124.204208 
	C235.481522,124.226952 236.161850,124.938583 236.852493,125.332069 
	C236.907104,125.835175 236.961716,126.338287 237.016327,126.841400 
	C235.251602,127.133865 233.455658,127.800636 231.727371,127.656395 
	C222.417221,126.879318 219.623428,128.952652 217.719299,138.224152 
	C213.848160,157.073288 202.860931,171.062531 187.408310,181.809662 
	C184.239182,184.013763 182.769714,186.341705 182.504272,190.242477 
	C181.796448,200.644119 180.582260,211.011307 179.139633,221.603134 
	C178.451385,221.774597 178.214890,221.836349 178.000412,221.999313 
	C167.978607,222.048767 157.956802,222.098221 147.358795,222.013016 
	C146.533051,221.773453 146.284088,221.784409 146.035660,221.911209 
	C144.683105,215.817093 143.084717,209.763138 142.079330,203.612289 
	C141.558640,200.426849 140.115051,200.097198 137.383850,200.180496 
	C128.269760,200.458435 119.143509,200.667191 110.030991,200.474075 
	C107.134926,200.412689 106.239922,201.207138 105.908058,203.872833 
	C105.313499,208.648590 104.363907,213.379028 103.680351,218.145279 
	C103.281059,220.929443 101.970558,222.037796 99.043617,221.979889 
	C90.570374,221.812241 82.089729,222.008133 73.617317,221.820648 
	C72.320778,221.791977 70.034332,220.616501 69.925827,219.754822 
	C68.585182,209.107880 67.564087,198.420700 66.612579,187.379791 
z"/>
<path fill="#E0CA09" opacity="1.000000" stroke="none" 
	d="
M108.809349,54.679184 
	C103.659431,50.453003 99.620102,45.545460 98.999710,38.567070 
	C98.030289,27.662731 104.202667,18.163092 114.255623,15.061894 
	C124.361794,11.944282 135.123383,16.412582 140.144745,25.811293 
	C145.161240,35.200851 142.687881,46.058956 133.299072,53.874001 
	C124.858200,59.121223 116.855408,58.131477 108.809349,54.679184 
M133.041611,48.561333 
	C138.391403,43.090302 140.469162,36.771442 137.542389,29.433830 
	C134.933914,22.894146 130.029404,18.875986 122.984711,18.078360 
	C114.440491,17.110950 107.200073,21.799452 104.205009,29.815914 
	C101.382576,37.370319 103.897446,45.024342 110.993217,50.475826 
	C117.449890,55.436317 124.862236,54.951790 133.041611,48.561333 
z"/>
<path fill="#152B3E" opacity="1.000000" stroke="none" 
	d="
M108.576851,54.945618 
	C116.855408,58.131477 124.858200,59.121223 133.067520,54.154583 
	C139.250366,55.061565 145.123886,56.072456 151.386459,57.129402 
	C150.237778,59.457321 148.700058,61.739185 146.657181,64.770630 
	C131.541687,60.769402 115.302269,60.200169 98.651955,65.388939 
	C98.329384,62.544033 98.057716,60.148067 97.631088,57.340031 
	C101.098877,56.355991 104.721611,55.784019 108.576851,54.945618 
z"/>
<path fill="#19445C" opacity="1.000000" stroke="none" 
	d="
M74.022728,63.543060 
	C74.319977,64.266342 74.319962,64.765602 74.377487,65.258133 
	C75.446518,74.412392 75.447968,74.412224 65.674660,77.348579 
	C64.412994,66.292618 64.937782,54.740852 57.213455,44.941277 
	C57.023964,44.234352 57.028728,44.064159 57.033489,43.893970 
	C64.549767,46.294445 68.711494,52.035286 71.836327,58.793034 
	C72.523155,60.278374 73.116081,61.807137 74.022728,63.543060 
z"/>
<path fill="#173954" opacity="1.000000" stroke="none" 
	d="
M56.731773,43.697403 
	C57.028728,44.064159 57.023964,44.234352 57.016018,44.659592 
	C56.672901,51.824230 56.402088,58.738220 55.963303,65.641525 
	C55.749977,68.997726 55.222546,72.333954 54.462860,75.802078 
	C54.371181,66.738808 54.588829,57.549782 54.997131,48.369236 
	C55.070107,46.728439 55.932285,45.122738 56.731773,43.697403 
z"/>
<path fill="#173B57" opacity="1.000000" stroke="none" 
	d="
M9.613045,111.453697 
	C9.929365,122.884071 9.970568,134.616425 9.998984,146.843048 
	C9.663228,146.600906 9.056767,145.863327 9.059783,145.128220 
	C9.105432,134.003845 9.231045,122.879799 9.613045,111.453697 
z"/>
<path fill="#143A4C" opacity="1.000000" stroke="none" 
	d="
M146.273590,221.981995 
	C146.284088,221.784409 146.533051,221.773453 146.894485,221.945847 
	C147.006393,222.013336 146.511505,222.052765 146.273590,221.981995 
z"/>
<path fill="#143A4C" opacity="1.000000" stroke="none" 
	d="
M178.242889,222.015411 
	C178.214890,221.836349 178.451385,221.774597 178.830505,221.853363 
	C178.951096,221.892624 178.485352,222.031494 178.242889,222.015411 
z"/>
<path fill="#173451" opacity="1.000000" stroke="none" 
	d="
M59.312771,105.120193 
	C57.312290,107.230606 55.416401,108.960892 53.520508,110.691177 
	C52.016937,108.355980 49.657055,106.181274 49.183239,103.653084 
	C48.107143,97.911232 50.788071,93.349831 54.283909,93.405281 
	C57.499947,93.456306 59.886147,97.803230 59.682541,103.280411 
	C59.664356,103.769569 59.509007,104.253632 59.312771,105.120193 
z"/>
<path fill="#BDAA01" opacity="1.000000" stroke="none" 
	d="
M132.780121,48.815056 
	C124.862236,54.951790 117.449890,55.436317 110.993217,50.475826 
	C103.897446,45.024342 101.382576,37.370319 104.205009,29.815914 
	C107.200073,21.799452 114.440491,17.110950 122.984711,18.078360 
	C130.029404,18.875986 134.933914,22.894146 137.542389,29.433830 
	C140.469162,36.771442 138.391403,43.090302 132.780121,48.815056 
M126.715233,46.492493 
	C131.892685,43.635078 133.779434,39.104321 132.741394,33.507591 
	C131.908112,29.014929 129.450104,25.346090 124.707878,24.317324 
	C119.620514,23.213682 114.770744,23.757998 111.241554,28.361389 
	C108.169518,32.368477 108.147751,38.878021 111.266983,43.284218 
	C114.342102,47.628082 119.638718,48.915539 126.715233,46.492493 
z"/>
<path fill="#E3CC00" opacity="1.000000" stroke="none" 
	d="
M126.371399,46.682281 
	C119.638718,48.915539 114.342102,47.628082 111.266983,43.284218 
	C108.147751,38.878021 108.169518,32.368477 111.241554,28.361389 
	C114.770744,23.757998 119.620514,23.213682 124.707878,24.317324 
	C129.450104,25.346090 131.908112,29.014929 132.741394,33.507591 
	C133.779434,39.104321 131.892685,43.635078 126.371399,46.682281 
M125.440826,41.656013 
	C128.165909,35.650398 119.953789,35.909412 119.500519,31.348238 
	C121.025429,30.571251 122.502899,29.818436 125.281631,28.402590 
	C122.986816,27.771395 121.485016,26.909018 120.987358,27.305868 
	C119.507195,28.486174 117.634338,30.055882 117.416870,31.675127 
	C117.222404,33.123093 118.917152,34.914509 119.976097,36.414780 
	C120.953003,37.798832 122.192749,38.997360 123.316727,40.277607 
	C121.571663,40.758617 119.823318,41.228271 118.083916,41.728935 
	C117.667801,41.848705 117.281418,42.071785 116.734993,42.311592 
	C119.739281,47.154469 122.395538,44.788902 125.440826,41.656013 
z"/>
<path fill="#C0AD00" opacity="1.000000" stroke="none" 
	d="
M125.244934,41.963604 
	C122.395538,44.788902 119.739281,47.154469 116.734993,42.311592 
	C117.281418,42.071785 117.667801,41.848705 118.083916,41.728935 
	C119.823318,41.228271 121.571663,40.758617 123.316727,40.277607 
	C122.192749,38.997360 120.953003,37.798832 119.976097,36.414780 
	C118.917152,34.914509 117.222404,33.123093 117.416870,31.675127 
	C117.634338,30.055882 119.507195,28.486174 120.987358,27.305868 
	C121.485016,26.909018 122.986816,27.771395 125.281631,28.402590 
	C122.502899,29.818436 121.025429,30.571251 119.500519,31.348238 
	C119.953789,35.909412 128.165909,35.650398 125.244934,41.963604 
z"/>
</svg>