<?xml version="1.0" encoding="UTF-8"?>
<svg version="1.1" xmlns="http://www.w3.org/2000/svg" width="600" height="600">
<path d="M0 0 C198 0 396 0 600 0 C600 198 600 396 600 600 C402 600 204 600 0 600 C0 402 0 204 0 0 Z " fill="#3D91CB" transform="translate(0,0)"/>
<path d="M0 0 C12.10792453 2.23034076 23.63785727 10.98875842 30.8125 20.8125 C36.35196534 29.36023958 40.29044521 38.55282933 44 48 C44.64735107 47.72849121 45.29470215 47.45698242 45.96166992 47.17724609 C64.90827963 39.28185085 83.43440443 33.1580745 103.5625 29.125 C104.62073975 28.90932373 105.67897949 28.69364746 106.76928711 28.47143555 C117.29828545 26.47839048 126.25945826 25.93495024 136.2890625 29.97265625 C149.35813273 34.92534425 162.21146561 32.87620376 175 28 C176.485 27.01 176.485 27.01 178 26 C180.76480705 25.93756887 183.37606576 25.9971226 186.125 26.1875 C186.92760254 26.23938477 187.73020508 26.29126953 188.55712891 26.34472656 C196.83444267 26.95184862 204.89219883 28.25287647 213 30 C213.74378906 30.15952148 214.48757813 30.31904297 215.25390625 30.48339844 C247.36700801 37.56077831 279.2286856 49.58653647 306 69 C306.87132568 69.62551758 306.87132568 69.62551758 307.76025391 70.26367188 C315.47586184 75.85361783 322.63491788 82.00631658 329.51611328 88.58349609 C330.50417775 89.52669288 331.49735893 90.4645589 332.49560547 91.39697266 C357.020347 114.34153233 374.27589473 146.40465034 378 180 C378.06400078 182.31170807 378.08633991 184.62502904 378.0625 186.9375 C378.05347656 188.08089844 378.04445313 189.22429687 378.03515625 190.40234375 C378.01775391 191.68818359 378.01775391 191.68818359 378 193 C379.98 192.34 381.96 191.68 384 191 C382.7625 189.4840625 382.7625 189.4840625 381.5 187.9375 C379.58453716 185.21754276 378.97921428 183.8836 378.375 180.5 C379.29795913 175.33142885 381.71698531 171.69384961 385.9375 168.5625 C390.03885183 167.4439495 392.9737362 167.49827103 396.8125 169.375 C399 171 399 171 400 173 C400.07065617 175.04055005 400.08421976 177.08334257 400.0625 179.125 C400.05347656 180.22070312 400.04445313 181.31640625 400.03515625 182.4453125 C400.01775391 183.70988281 400.01775391 183.70988281 400 185 C401.18078125 185.12117187 402.3615625 185.24234375 403.578125 185.3671875 C405.13546043 185.5360552 406.69274977 185.70534835 408.25 185.875 C409.02730469 185.95363281 409.80460938 186.03226563 410.60546875 186.11328125 C417.72431144 186.90426377 417.72431144 186.90426377 421 189 C421.125 191.375 421.125 191.375 421 194 C419 196 419 196 417.14453125 196.23046875 C416.37496094 196.21628906 415.60539063 196.20210937 414.8125 196.1875 C413.925625 196.1771875 413.03875 196.166875 412.125 196.15625 C409.82854445 196.04142722 407.53594938 195.84139452 405.25 195.59375 C397.21032782 194.37412901 397.21032782 194.37412901 390.0625 197.3125 C389.38151245 197.98285278 389.38151245 197.98285278 388.68676758 198.66674805 C385.81079555 200.93996895 382.54174666 201.22626457 379 202 C378.84144531 203.15113281 378.68289063 204.30226563 378.51953125 205.48828125 C373.10097803 243.17821785 357.98727499 273.05476127 331 300 C330.30261719 300.74378906 329.60523438 301.48757813 328.88671875 302.25390625 C323.9143706 307.47354702 318.7012257 311.93607866 312.9375 316.25 C312.2472876 316.77416504 311.5570752 317.29833008 310.84594727 317.83837891 C307.20688961 320.55170756 303.77892684 322.57863452 299.625 324.4375 C297.27303659 325.98167332 296.23041355 327.16272259 295.47998047 329.88964844 C294.55840017 335.22535617 294.34429991 340.60274904 294.1328125 346.00537109 C293.91617988 350.8899589 293.47502624 355.75377252 293.0625 360.625 C292.89735631 362.70564363 292.73334505 364.78637738 292.5703125 366.8671875 C291.947838 374.70583912 291.29974954 382.54224876 290.63742065 390.37762451 C290.50495692 391.94951675 290.37353507 393.52149717 290.24319458 395.09356689 C290.05943945 397.30741378 289.87197245 399.52091735 289.68359375 401.734375 C289.57587646 403.01538086 289.46815918 404.29638672 289.35717773 405.61621094 C289 409 289 409 288 414 C261.93 414 235.86 414 209 414 C207.02426596 404.77990782 205.10140997 395.57863251 203.375 386.3125 C203.1584375 385.18005859 202.941875 384.04761719 202.71875 382.88085938 C201.42246848 375.93135011 200.4921705 369.05296324 200 362 C199.1754834 362.14381104 198.3509668 362.28762207 197.50146484 362.43579102 C187.70919354 364.14374531 178.12113097 365.15477906 168.1796875 365.16796875 C167.27735382 365.17129715 166.37502014 365.17462555 165.44534302 365.17805481 C163.54787703 365.18308139 161.65040233 365.18546447 159.75292969 365.18530273 C156.90284038 365.18747874 154.0531456 365.20565191 151.203125 365.22460938 C140.29759892 365.2569626 129.78210002 364.70127003 119 363 C118.8875293 364.04881348 118.77505859 365.09762695 118.65917969 366.17822266 C117.67939299 375.17986681 116.41948557 384.11960921 115 393.0625 C114.8340332 394.12009521 114.66806641 395.17769043 114.49707031 396.26733398 C114.33303711 397.28384033 114.16900391 398.30034668 114 399.34765625 C113.855625 400.24492432 113.71125 401.14219238 113.5625 402.06665039 C112.85754536 405.74287869 111.9078616 409.36855361 111 413 C85.92 413 60.84 413 35 413 C32.750226 401.75113002 32.750226 401.75113002 32.16210938 396.85449219 C31.96180115 395.21163239 31.96180115 395.21163239 31.75744629 393.5355835 C31.62092651 392.38430969 31.48440674 391.23303589 31.34375 390.046875 C31.19595093 388.82905334 31.04815186 387.61123169 30.89587402 386.35650635 C30.42694256 382.48810037 29.96317144 378.61909949 29.5 374.75 C29.0360025 370.89528872 28.57086422 367.04072073 28.10412598 363.18634033 C27.81515759 360.79784216 27.52784428 358.40914289 27.24255371 356.02020264 C26.97574157 353.80670818 26.70278368 351.59394466 26.42326355 349.38201904 C26.12255175 346.97922993 25.84129058 344.57397131 25.57344055 342.16729736 C25.42134628 340.91455017 25.26925201 339.66180298 25.11254883 338.37109375 C24.98197586 337.23309326 24.85140289 336.09509277 24.71687317 334.92260742 C23.92575154 331.69729778 23.13077972 330.5849367 20.54296875 328.578125 C19.11645249 327.75649138 17.66237515 326.98128227 16.1875 326.25 C14.63526689 325.36680181 13.08580973 324.4787083 11.5390625 323.5859375 C10.38519043 322.94350098 10.38519043 322.94350098 9.20800781 322.28808594 C5.9616546 320.39426025 3.01192686 318.19711836 0.0625 315.875 C-0.46512939 315.4612915 -0.99275879 315.04758301 -1.53637695 314.62133789 C-6.56197845 310.62723656 -11.34781411 306.42097785 -16 302 C-16.5053125 301.52191895 -17.010625 301.04383789 -17.53125 300.55126953 C-33.11520373 285.71186167 -45.19993065 268.71765539 -54 249 C-54 248.34 -54 247.68 -54 247 C-55.27488281 246.89042969 -56.54976562 246.78085937 -57.86328125 246.66796875 C-68.8145022 245.71021425 -79.75545999 244.65650675 -90.6875 243.5 C-92.45057495 243.32247192 -92.45057495 243.32247192 -94.24926758 243.14135742 C-95.34650146 243.02252197 -96.44373535 242.90368652 -97.57421875 242.78125 C-99.03734497 242.6275293 -99.03734497 242.6275293 -100.5300293 242.47070312 C-103 242 -103 242 -106 240 C-106.30234442 237.35445603 -106.40948993 234.94166424 -106.38818359 232.29321289 C-106.39344055 231.49794693 -106.39869751 230.70268097 -106.40411377 229.88331604 C-106.41735125 227.24623146 -106.40856184 224.60974731 -106.3984375 221.97265625 C-106.40045736 220.14424015 -106.40336807 218.31582483 -106.40713501 216.4874115 C-106.4115636 212.65144191 -106.40511091 208.81568162 -106.39111328 204.97973633 C-106.37403311 200.05871675 -106.38385173 195.13818841 -106.40183067 190.21718693 C-106.4126644 186.43997996 -106.40922386 182.6628897 -106.4014473 178.88567924 C-106.39944352 177.07116068 -106.40191076 175.25663158 -106.40888596 173.44212532 C-106.4164924 170.90652485 -106.40490747 168.37172256 -106.38818359 165.83618164 C-106.39425629 165.083349 -106.40032898 164.33051636 -106.40658569 163.55487061 C-106.34488965 158.51390021 -106.34488965 158.51390021 -104.69364929 156.05348206 C-101.7911672 154.24808302 -98.51465959 154.17696876 -95.18359375 153.8671875 C-94.41249771 153.78501984 -93.64140167 153.70285217 -92.84693909 153.61819458 C-90.37823009 153.35806495 -87.90811279 153.11630559 -85.4375 152.875 C-83.80130706 152.70563258 -82.16523714 152.53507216 -80.52929688 152.36328125 C-76.68738659 151.96270846 -72.84429482 151.57596079 -69.00018311 151.19714355 C-66.2823158 150.92926307 -63.56501053 150.65584122 -60.84765625 150.3828125 C-59.57792969 150.25648438 -58.30820313 150.13015625 -57 150 C-56.67 148.845 -56.34 147.69 -56 146.5 C-48.48543005 124.20095057 -33.69412509 105.63433421 -17.375 89.125 C-16.47938354 88.21524414 -16.47938354 88.21524414 -15.56567383 87.28710938 C-14.97423584 86.69994141 -14.38279785 86.11277344 -13.7734375 85.5078125 C-13.21011719 84.94700485 -12.64679688 84.3861972 -12.06640625 83.80839539 C-10 82 -10 82 -7.70133972 80.727005 C-4.85308751 79.06978303 -3.03789292 77.60854132 -1 75 C0.33761983 69.31183941 0.19011705 63.72596088 0.09765625 57.91015625 C0.10331388 56.23862463 0.11293076 54.56710214 0.12632751 52.89561462 C0.15087924 48.51376466 0.12191412 44.13386588 0.08154297 39.75219727 C0.04983878 35.27418442 0.06909932 30.79641683 0.08398438 26.31835938 C0.10567915 17.54501777 0.07080116 8.77308059 0 0 Z " fill="#29618E" transform="translate(152,106)"/>
<path d="M0 0 C12.10792453 2.23034076 23.63785727 10.98875842 30.8125 20.8125 C36.35196534 29.36023958 40.29044521 38.55282933 44 48 C44.64735107 47.72849121 45.29470215 47.45698242 45.96166992 47.17724609 C64.90827963 39.28185085 83.43440443 33.1580745 103.5625 29.125 C104.62073975 28.90932373 105.67897949 28.69364746 106.76928711 28.47143555 C117.29828545 26.47839048 126.25945826 25.93495024 136.2890625 29.97265625 C149.35813273 34.92534425 162.21146561 32.87620376 175 28 C176.485 27.01 176.485 27.01 178 26 C180.76480705 25.93756887 183.37606576 25.9971226 186.125 26.1875 C186.92760254 26.23938477 187.73020508 26.29126953 188.55712891 26.34472656 C196.83444267 26.95184862 204.89219883 28.25287647 213 30 C213.74378906 30.15952148 214.48757813 30.31904297 215.25390625 30.48339844 C247.36700801 37.56077831 279.2286856 49.58653647 306 69 C306.87132568 69.62551758 306.87132568 69.62551758 307.76025391 70.26367188 C315.47586184 75.85361783 322.63491788 82.00631658 329.51611328 88.58349609 C330.50417775 89.52669288 331.49735893 90.4645589 332.49560547 91.39697266 C357.020347 114.34153233 374.27589473 146.40465034 378 180 C378.06400078 182.31170807 378.08633991 184.62502904 378.0625 186.9375 C378.05347656 188.08089844 378.04445313 189.22429687 378.03515625 190.40234375 C378.01775391 191.68818359 378.01775391 191.68818359 378 193 C379.98 192.34 381.96 191.68 384 191 C382.7625 189.4840625 382.7625 189.4840625 381.5 187.9375 C379.58453716 185.21754276 378.97921428 183.8836 378.375 180.5 C379.29795913 175.33142885 381.71698531 171.69384961 385.9375 168.5625 C390.03885183 167.4439495 392.9737362 167.49827103 396.8125 169.375 C399 171 399 171 400 173 C400.07065617 175.04055005 400.08421976 177.08334257 400.0625 179.125 C400.05347656 180.22070312 400.04445313 181.31640625 400.03515625 182.4453125 C400.01775391 183.70988281 400.01775391 183.70988281 400 185 C401.18078125 185.12117187 402.3615625 185.24234375 403.578125 185.3671875 C405.13546043 185.5360552 406.69274977 185.70534835 408.25 185.875 C409.02730469 185.95363281 409.80460938 186.03226563 410.60546875 186.11328125 C417.72431144 186.90426377 417.72431144 186.90426377 421 189 C421.125 191.375 421.125 191.375 421 194 C419 196 419 196 417.14453125 196.23046875 C416.37496094 196.21628906 415.60539063 196.20210937 414.8125 196.1875 C413.925625 196.1771875 413.03875 196.166875 412.125 196.15625 C409.82854445 196.04142722 407.53594938 195.84139452 405.25 195.59375 C397.21032782 194.37412901 397.21032782 194.37412901 390.0625 197.3125 C389.38151245 197.98285278 389.38151245 197.98285278 388.68676758 198.66674805 C385.81079555 200.93996895 382.54174666 201.22626457 379 202 C378.84144531 203.15113281 378.68289063 204.30226563 378.51953125 205.48828125 C373.10097803 243.17821785 357.98727499 273.05476127 331 300 C330.30261719 300.74378906 329.60523438 301.48757813 328.88671875 302.25390625 C323.9143706 307.47354702 318.7012257 311.93607866 312.9375 316.25 C312.2472876 316.77416504 311.5570752 317.29833008 310.84594727 317.83837891 C307.20688961 320.55170756 303.77892684 322.57863452 299.625 324.4375 C297.27303659 325.98167332 296.23041355 327.16272259 295.47998047 329.88964844 C294.55840017 335.22535617 294.34429991 340.60274904 294.1328125 346.00537109 C293.91617988 350.8899589 293.47502624 355.75377252 293.0625 360.625 C292.89735631 362.70564363 292.73334505 364.78637738 292.5703125 366.8671875 C291.947838 374.70583912 291.29974954 382.54224876 290.63742065 390.37762451 C290.50495692 391.94951675 290.37353507 393.52149717 290.24319458 395.09356689 C290.05943945 397.30741378 289.87197245 399.52091735 289.68359375 401.734375 C289.57587646 403.01538086 289.46815918 404.29638672 289.35717773 405.61621094 C289 409 289 409 288 414 C261.93 414 235.86 414 209 414 C207.02426596 404.77990782 205.10140997 395.57863251 203.375 386.3125 C203.1584375 385.18005859 202.941875 384.04761719 202.71875 382.88085938 C201.42246848 375.93135011 200.4921705 369.05296324 200 362 C199.1754834 362.14381104 198.3509668 362.28762207 197.50146484 362.43579102 C187.70919354 364.14374531 178.12113097 365.15477906 168.1796875 365.16796875 C167.27735382 365.17129715 166.37502014 365.17462555 165.44534302 365.17805481 C163.54787703 365.18308139 161.65040233 365.18546447 159.75292969 365.18530273 C156.90284038 365.18747874 154.0531456 365.20565191 151.203125 365.22460938 C140.29759892 365.2569626 129.78210002 364.70127003 119 363 C118.8875293 364.04881348 118.77505859 365.09762695 118.65917969 366.17822266 C117.67939299 375.17986681 116.41948557 384.11960921 115 393.0625 C114.8340332 394.12009521 114.66806641 395.17769043 114.49707031 396.26733398 C114.33303711 397.28384033 114.16900391 398.30034668 114 399.34765625 C113.855625 400.24492432 113.71125 401.14219238 113.5625 402.06665039 C112.85754536 405.74287869 111.9078616 409.36855361 111 413 C85.92 413 60.84 413 35 413 C32.750226 401.75113002 32.750226 401.75113002 32.16210938 396.85449219 C31.96180115 395.21163239 31.96180115 395.21163239 31.75744629 393.5355835 C31.62092651 392.38430969 31.48440674 391.23303589 31.34375 390.046875 C31.19595093 388.82905334 31.04815186 387.61123169 30.89587402 386.35650635 C30.42694256 382.48810037 29.96317144 378.61909949 29.5 374.75 C29.0360025 370.89528872 28.57086422 367.04072073 28.10412598 363.18634033 C27.81515759 360.79784216 27.52784428 358.40914289 27.24255371 356.02020264 C26.97574157 353.80670818 26.70278368 351.59394466 26.42326355 349.38201904 C26.12255175 346.97922993 25.84129058 344.57397131 25.57344055 342.16729736 C25.42134628 340.91455017 25.26925201 339.66180298 25.11254883 338.37109375 C24.98197586 337.23309326 24.85140289 336.09509277 24.71687317 334.92260742 C23.92575154 331.69729778 23.13077972 330.5849367 20.54296875 328.578125 C19.11645249 327.75649138 17.66237515 326.98128227 16.1875 326.25 C14.63526689 325.36680181 13.08580973 324.4787083 11.5390625 323.5859375 C10.38519043 322.94350098 10.38519043 322.94350098 9.20800781 322.28808594 C5.9616546 320.39426025 3.01192686 318.19711836 0.0625 315.875 C-0.46512939 315.4612915 -0.99275879 315.04758301 -1.53637695 314.62133789 C-6.56197845 310.62723656 -11.34781411 306.42097785 -16 302 C-16.5053125 301.52191895 -17.010625 301.04383789 -17.53125 300.55126953 C-33.11520373 285.71186167 -45.19993065 268.71765539 -54 249 C-54 248.34 -54 247.68 -54 247 C-55.27488281 246.89042969 -56.54976562 246.78085937 -57.86328125 246.66796875 C-68.8145022 245.71021425 -79.75545999 244.65650675 -90.6875 243.5 C-92.45057495 243.32247192 -92.45057495 243.32247192 -94.24926758 243.14135742 C-95.34650146 243.02252197 -96.44373535 242.90368652 -97.57421875 242.78125 C-99.03734497 242.6275293 -99.03734497 242.6275293 -100.5300293 242.47070312 C-103 242 -103 242 -106 240 C-106.30234442 237.35445603 -106.40948993 234.94166424 -106.38818359 232.29321289 C-106.39344055 231.49794693 -106.39869751 230.70268097 -106.40411377 229.88331604 C-106.41735125 227.24623146 -106.40856184 224.60974731 -106.3984375 221.97265625 C-106.40045736 220.14424015 -106.40336807 218.31582483 -106.40713501 216.4874115 C-106.4115636 212.65144191 -106.40511091 208.81568162 -106.39111328 204.97973633 C-106.37403311 200.05871675 -106.38385173 195.13818841 -106.40183067 190.21718693 C-106.4126644 186.43997996 -106.40922386 182.6628897 -106.4014473 178.88567924 C-106.39944352 177.07116068 -106.40191076 175.25663158 -106.40888596 173.44212532 C-106.4164924 170.90652485 -106.40490747 168.37172256 -106.38818359 165.83618164 C-106.39425629 165.083349 -106.40032898 164.33051636 -106.40658569 163.55487061 C-106.34488965 158.51390021 -106.34488965 158.51390021 -104.69364929 156.05348206 C-101.7911672 154.24808302 -98.51465959 154.17696876 -95.18359375 153.8671875 C-94.41249771 153.78501984 -93.64140167 153.70285217 -92.84693909 153.61819458 C-90.37823009 153.35806495 -87.90811279 153.11630559 -85.4375 152.875 C-83.80130706 152.70563258 -82.16523714 152.53507216 -80.52929688 152.36328125 C-76.68738659 151.96270846 -72.84429482 151.57596079 -69.00018311 151.19714355 C-66.2823158 150.92926307 -63.56501053 150.65584122 -60.84765625 150.3828125 C-59.57792969 150.25648438 -58.30820313 150.13015625 -57 150 C-56.67 148.845 -56.34 147.69 -56 146.5 C-48.48543005 124.20095057 -33.69412509 105.63433421 -17.375 89.125 C-16.47938354 88.21524414 -16.47938354 88.21524414 -15.56567383 87.28710938 C-14.97423584 86.69994141 -14.38279785 86.11277344 -13.7734375 85.5078125 C-13.21011719 84.94700485 -12.64679688 84.3861972 -12.06640625 83.80839539 C-10 82 -10 82 -7.70133972 80.727005 C-4.85308751 79.06978303 -3.03789292 77.60854132 -1 75 C0.33761983 69.31183941 0.19011705 63.72596088 0.09765625 57.91015625 C0.10331388 56.23862463 0.11293076 54.56710214 0.12632751 52.89561462 C0.15087924 48.51376466 0.12191412 44.13386588 0.08154297 39.75219727 C0.04983878 35.27418442 0.06909932 30.79641683 0.08398438 26.31835938 C0.10567915 17.54501777 0.07080116 8.77308059 0 0 Z M2 3 C2 3.87252411 2 4.74504822 2 5.64401245 C2 28.76267497 2 51.88133748 2 75 C0.234375 76.55859375 0.234375 76.55859375 -2.25 78.4375 C-25.42430351 96.57106518 -44.26935131 119.53855077 -54.515625 147.3046875 C-56.38780035 150.70416379 -57.3331426 150.88127703 -61 152 C-63.80211901 152.40740091 -66.55607847 152.73900889 -69.37109375 153 C-70.57101707 153.12181641 -70.57101707 153.12181641 -71.79518127 153.24609375 C-74.34198131 153.50437636 -76.88955582 153.75327708 -79.4375 154 C-82.79121158 154.32542411 -86.14382377 154.66008355 -89.49609375 155 C-90.2587706 155.07089844 -91.02144745 155.14179688 -91.80723572 155.21484375 C-92.5314119 155.28832031 -93.25558807 155.36179687 -94.00170898 155.4375 C-94.63060532 155.49808594 -95.25950165 155.55867187 -95.90745544 155.62109375 C-98.6741165 156.12206524 -101.3326329 157.11087763 -104 158 C-104 184.73 -104 211.46 -104 239 C-98.88837154 240.74747528 -98.88837154 240.74747528 -93.83398438 241.59423828 C-93.07299438 241.67417023 -92.31200439 241.75410217 -91.5279541 241.8364563 C-90.32302307 241.95221512 -90.32302307 241.95221512 -89.09375 242.0703125 C-88.25082397 242.15626678 -87.40789795 242.24222107 -86.53942871 242.33078003 C-84.76472927 242.51038178 -82.98969306 242.68668321 -81.21435547 242.85986328 C-78.50796814 243.12422168 -75.80281114 243.39912327 -73.09765625 243.67578125 C-71.36724971 243.84957885 -69.63678275 244.02277611 -67.90625 244.1953125 C-66.70131897 244.31714401 -66.70131897 244.31714401 -65.4720459 244.44143677 C-61.29541289 244.84553613 -57.20265279 245.08650544 -53 245 C-52.690625 246.155 -52.38125 247.31 -52.0625 248.5 C-45.53297954 267.81649804 -31.17344426 284.74920468 -17 299 C-16.5045166 299.49951172 -16.0090332 299.99902344 -15.49853516 300.51367188 C-4.16947219 311.78046712 8.7735752 321.24772711 22.625 329.1875 C23.25124268 329.54996826 23.87748535 329.91243652 24.52270508 330.28588867 C32.40105554 334.62418738 40.82110726 335.50536167 49.625 336.5625 C50.61628906 336.68818359 51.60757813 336.81386719 52.62890625 336.94335938 C92.87887528 341.89042764 133.92013606 339.54044528 173.43554688 330.57617188 C175.74897483 330.05639941 178.0658597 329.5751867 180.390625 329.109375 C223.22481938 320.23179528 265.68274789 298.63865839 297.859375 268.953125 C299.59341258 267.37097392 301.34699382 265.89053119 303.1875 264.4375 C306.85824195 261.25619031 309.87708548 257.71039348 313 254 C314.14662109 252.68515625 314.14662109 252.68515625 315.31640625 251.34375 C340.77326786 221.70383601 353.59323136 186.10641825 351 147 C349.5730662 132.59272502 345.59051232 119.30006315 340 106 C339.60039062 104.99324219 339.20078125 103.98648438 338.7890625 102.94921875 C326.14718345 74.12394134 281.13854482 54.58106975 253.59277344 43.59033203 C241.37517598 38.84809695 228.99001017 34.85571574 216 33 C216 39.27 216 45.54 216 52 C212.596875 50.8553125 212.596875 50.8553125 209.125 49.6875 C203.04340292 47.73263296 196.99122025 46.28177484 190.6875 45.25 C189.98447754 45.13487061 189.28145508 45.01974121 188.55712891 44.90112305 C158.69094821 40.32468605 128.64268821 42.45243726 100 52 C100 45.73 100 39.46 100 33 C91.96775634 33.53149049 84.75483538 35.23272086 77.0625 37.5625 C75.88768066 37.9145752 74.71286133 38.26665039 73.50244141 38.62939453 C63.40905783 41.72986858 53.44454243 45.2442375 44 50 C43.67 50.66 43.34 51.32 43 52 C43.33 52.99 43.66 53.98 44 55 C44.14492123 56.40664926 44.24628931 57.8181133 44.31640625 59.23046875 C44.37924805 60.43413086 44.37924805 60.43413086 44.44335938 61.66210938 C44.48267578 62.49548828 44.52199219 63.32886719 44.5625 64.1875 C44.62727539 65.4549707 44.62727539 65.4549707 44.69335938 66.74804688 C44.79931518 68.83184433 44.9001502 70.91590103 45 73 C43.70835937 73.17015625 43.70835937 73.17015625 42.390625 73.34375 C38.90173448 74.01901913 36.00685069 75.09251679 32.75 76.5 C31.71359375 76.9434375 30.6771875 77.386875 29.609375 77.84375 C28.05854599 78.53094369 26.51718312 79.24140844 25 80 C24.96036133 79.1248877 24.92072266 78.24977539 24.87988281 77.34814453 C23.56827393 38.45129056 23.56827393 38.45129056 5.94140625 4.72265625 C4.18325268 2.77876344 4.18325268 2.77876344 2 3 Z " fill="#174258" transform="translate(152,106)"/>
<path d="M0 0 C9.8352798 7.34533555 17.57608777 18.52484318 19.46875 30.84375 C20.58568839 47.18017137 18.84917396 60.57987494 8.46875 73.84375 C-1.0878547 84.32992206 -12.55187735 89.13599961 -26.53125 90.84375 C-35.80538304 91.09658896 -43.97330521 89.32939466 -52.53125 85.84375 C-53.62373047 85.41255859 -53.62373047 85.41255859 -54.73828125 84.97265625 C-66.59908315 79.70898677 -74.22458594 69.16713223 -78.96875 57.40625 C-82.329639 46.32400824 -82.45015748 31.45823455 -77.53125 20.84375 C-77.20253906 20.10511719 -76.87382812 19.36648437 -76.53515625 18.60546875 C-70.11805941 5.74907059 -58.95396439 -3.37991915 -45.53125 -8.15625 C-29.77501412 -12.41469213 -13.25670322 -8.99017804 0 0 Z " fill="#BCA900" transform="translate(334.53125,49.15625)"/>
<path d="M0 0 C12.10792453 2.23034076 23.63785727 10.98875842 30.8125 20.8125 C36.35196534 29.36023958 40.29044521 38.55282933 44 48 C44.64735107 47.72849121 45.29470215 47.45698242 45.96166992 47.17724609 C64.90827963 39.28185085 83.43440443 33.1580745 103.5625 29.125 C104.62073975 28.90932373 105.67897949 28.69364746 106.76928711 28.47143555 C117.29828545 26.47839048 126.25945826 25.93495024 136.2890625 29.97265625 C149.35813273 34.92534425 162.21146561 32.87620376 175 28 C176.485 27.01 176.485 27.01 178 26 C180.76480705 25.93756887 183.37606576 25.9971226 186.125 26.1875 C186.92760254 26.23938477 187.73020508 26.29126953 188.55712891 26.34472656 C196.83444267 26.95184862 204.89219883 28.25287647 213 30 C213.74378906 30.15952148 214.48757813 30.31904297 215.25390625 30.48339844 C247.36700801 37.56077831 279.2286856 49.58653647 306 69 C306.87132568 69.62551758 306.87132568 69.62551758 307.76025391 70.26367188 C318.44942248 78.0079579 328.73106496 86.6638312 337 97 C333.80554305 95.60286388 331.81065188 93.97467102 329.4375 91.4375 C301.89783552 63.28922415 262.90897829 45.35803913 225.32568359 35.61914062 C222.20552453 34.78849572 219.10460041 33.88702869 216 33 C216 39.27 216 45.54 216 52 C211.35624723 51.2260412 206.91309517 50.25095725 202.375 49.0625 C171.77866559 41.25792222 139.79096745 41.94355991 109.3828125 50.1328125 C106.29376574 50.92469285 103.1455427 51.47574288 100 52 C100 45.73 100 39.46 100 33 C80.64897387 37.34410791 62.0558095 42.71556976 44 51 C44.16298584 51.57073242 44.32597168 52.14146484 44.49389648 52.72949219 C45.00368519 55.01653267 45.11435968 56.98964456 45.09765625 59.328125 C45.09443359 60.12734375 45.09121094 60.9265625 45.08789062 61.75 C45.07951172 62.575 45.07113281 63.4 45.0625 64.25 C45.05798828 65.09046875 45.05347656 65.9309375 45.04882812 66.796875 C45.03707961 68.86461401 45.01914522 70.93231624 45 73 C43.90300781 73.40992188 42.80601562 73.81984375 41.67578125 74.2421875 C40.22134314 74.78642886 38.76691667 75.33070133 37.3125 75.875 C36.59126953 76.14441406 35.87003906 76.41382813 35.12695312 76.69140625 C34.42119141 76.95566406 33.71542969 77.21992188 32.98828125 77.4921875 C32.34415283 77.73308105 31.70002441 77.97397461 31.03637695 78.22216797 C28.68024716 79.12213554 26.33976739 80.05840796 24 81 C23.94054199 79.64189209 23.94054199 79.64189209 23.87988281 78.25634766 C22.62122375 40.62122389 22.62122375 40.62122389 7 7 C5.35 5.68 3.7 4.36 2 3 C2 26.1 2 49.2 2 73 C2.66 73.33 3.32 73.66 4 74 C2.76636719 75.03447266 2.76636719 75.03447266 1.5078125 76.08984375 C-22.60963497 96.36258599 -41.99691744 117.75867098 -53.80859375 147.3046875 C-55 150 -55 150 -57 152 C-59.94823851 152.60106799 -62.83676725 153.08767771 -65.8125 153.5 C-66.69236572 153.62745605 -67.57223145 153.75491211 -68.47875977 153.88623047 C-75.99980111 154.94006664 -83.54070465 155.70577376 -91.10668945 156.35351562 C-91.93644287 156.42505859 -92.76619629 156.49660156 -93.62109375 156.5703125 C-94.3473999 156.62977051 -95.07370605 156.68922852 -95.82202148 156.75048828 C-98.23488018 157.02690814 -100.61852199 157.5237044 -103 158 C-103 184.73 -103 211.46 -103 239 C-84.98987457 241.2605418 -84.98987457 241.2605418 -67.31860352 242.46386719 C-55.01755246 243.15183377 -55.01755246 243.15183377 -51.30175781 246.55566406 C-48.54253904 250.58516469 -47.2293574 255.07948759 -45.82080078 259.71337891 C-44.46101186 263.50153566 -42.29473926 266.65597202 -40 269.9375 C-39.57267578 270.55826416 -39.14535156 271.17902832 -38.70507812 271.81860352 C-19.21596759 299.74625942 7.3123892 322.98544557 39 336 C39 336.66 39 337.32 39 338 C34.52761347 336.58192622 30.28853694 334.88695626 26 333 C25.67 333.66 25.34 334.32 25 335 C24.80921875 334.42378906 24.6184375 333.84757812 24.421875 333.25390625 C22.39924988 330.04771204 19.48833887 328.71321953 16.25 326.9375 C4.36647126 320.11326694 -6.07716064 311.42291005 -16 302 C-16.75579346 301.28505371 -16.75579346 301.28505371 -17.52685547 300.55566406 C-33.1124061 285.71451191 -45.19890311 268.71995771 -54 249 C-54 248.34 -54 247.68 -54 247 C-55.27488281 246.89042969 -56.54976562 246.78085937 -57.86328125 246.66796875 C-68.8145022 245.71021425 -79.75545999 244.65650675 -90.6875 243.5 C-92.45057495 243.32247192 -92.45057495 243.32247192 -94.24926758 243.14135742 C-95.34650146 243.02252197 -96.44373535 242.90368652 -97.57421875 242.78125 C-99.03734497 242.6275293 -99.03734497 242.6275293 -100.5300293 242.47070312 C-103 242 -103 242 -106 240 C-106.30234442 237.35445603 -106.40948993 234.94166424 -106.38818359 232.29321289 C-106.39344055 231.49794693 -106.39869751 230.70268097 -106.40411377 229.88331604 C-106.41735125 227.24623146 -106.40856184 224.60974731 -106.3984375 221.97265625 C-106.40045736 220.14424015 -106.40336807 218.31582483 -106.40713501 216.4874115 C-106.4115636 212.65144191 -106.40511091 208.81568162 -106.39111328 204.97973633 C-106.37403311 200.05871675 -106.38385173 195.13818841 -106.40183067 190.21718693 C-106.4126644 186.43997996 -106.40922386 182.6628897 -106.4014473 178.88567924 C-106.39944352 177.07116068 -106.40191076 175.25663158 -106.40888596 173.44212532 C-106.4164924 170.90652485 -106.40490747 168.37172256 -106.38818359 165.83618164 C-106.39425629 165.083349 -106.40032898 164.33051636 -106.40658569 163.55487061 C-106.34488965 158.51390021 -106.34488965 158.51390021 -104.69364929 156.05348206 C-101.7911672 154.24808302 -98.51465959 154.17696876 -95.18359375 153.8671875 C-94.41249771 153.78501984 -93.64140167 153.70285217 -92.84693909 153.61819458 C-90.37823009 153.35806495 -87.90811279 153.11630559 -85.4375 152.875 C-83.80130706 152.70563258 -82.16523714 152.53507216 -80.52929688 152.36328125 C-76.68738659 151.96270846 -72.84429482 151.57596079 -69.00018311 151.19714355 C-66.2823158 150.92926307 -63.56501053 150.65584122 -60.84765625 150.3828125 C-59.57792969 150.25648438 -58.30820313 150.13015625 -57 150 C-56.67 148.845 -56.34 147.69 -56 146.5 C-48.48543005 124.20095057 -33.69412509 105.63433421 -17.375 89.125 C-16.47938354 88.21524414 -16.47938354 88.21524414 -15.56567383 87.28710938 C-14.97423584 86.69994141 -14.38279785 86.11277344 -13.7734375 85.5078125 C-13.21011719 84.94700485 -12.64679688 84.3861972 -12.06640625 83.80839539 C-10 82 -10 82 -7.70133972 80.727005 C-4.85308751 79.06978303 -3.03789292 77.60854132 -1 75 C0.33761983 69.31183941 0.19011705 63.72596088 0.09765625 57.91015625 C0.10331388 56.23862463 0.11293076 54.56710214 0.12632751 52.89561462 C0.15087924 48.51376466 0.12191412 44.13386588 0.08154297 39.75219727 C0.04983878 35.27418442 0.06909932 30.79641683 0.08398438 26.31835938 C0.10567915 17.54501777 0.07080116 8.77308059 0 0 Z " fill="#13283B" transform="translate(152,106)"/>
<path d="M0 0 C9.8352798 7.34533555 17.57608777 18.52484318 19.46875 30.84375 C20.58568839 47.18017137 18.84917396 60.57987494 8.46875 73.84375 C-1.0878547 84.32992206 -12.55187735 89.13599961 -26.53125 90.84375 C-35.80538304 91.09658896 -43.97330521 89.32939466 -52.53125 85.84375 C-53.62373047 85.41255859 -53.62373047 85.41255859 -54.73828125 84.97265625 C-66.59908315 79.70898677 -74.22458594 69.16713223 -78.96875 57.40625 C-82.329639 46.32400824 -82.45015748 31.45823455 -77.53125 20.84375 C-77.20253906 20.10511719 -76.87382812 19.36648437 -76.53515625 18.60546875 C-70.11805941 5.74907059 -58.95396439 -3.37991915 -45.53125 -8.15625 C-29.77501412 -12.41469213 -13.25670322 -8.99017804 0 0 Z M-61.78125 13.03125 C-70.59141238 23.40649113 -72.47026664 34.65784027 -71.53125 47.84375 C-68.95572249 59.57343816 -62.02125296 68.72624778 -52.53125 75.84375 C-42.38652345 82.17481083 -30.87318093 83.48076817 -19.20703125 81.19140625 C-8.24152172 77.92000584 0.73654183 70.56316458 6.71875 60.8046875 C12.34580585 50.08845613 13.37345388 38.0905793 9.90625 26.46875 C5.71092 15.50201018 -2.70045171 6.89332367 -13.28125 1.96875 C-30.70935785 -5.55023367 -48.91404021 -0.43723127 -61.78125 13.03125 Z " fill="#E3CC01" transform="translate(334.53125,49.15625)"/>
<path d="M0 0 C1.07302368 0.00845947 1.07302368 0.00845947 2.16772461 0.01708984 C10.37924103 0.20521804 16.72828805 1.77504004 22.73828125 7.546875 C29.03695379 14.6113911 30.11961199 21.23762393 29.6640625 30.49609375 C28.90442974 38.74232939 26.55379083 44.71134156 20.3125 50.3125 C12.27112443 56.15270433 1.93010129 56.62895009 -7.6875 55.3125 C-14.73753161 52.87245074 -20.24483776 47.93032032 -23.6875 41.3125 C-26.49613175 33.15966618 -27.50726728 23.53764061 -24.625 15.26171875 C-21.44899594 9.57425495 -17.24888482 5.64482775 -11.6875 2.3125 C-11.10613281 1.93738281 -10.52476562 1.56226563 -9.92578125 1.17578125 C-6.65929093 -0.08406929 -3.45203413 -0.02804903 0 0 Z " fill="#E3CD00" transform="translate(302.6875,61.6875)"/>
<path d="M0 0 C12.24398416 2.25540363 23.80514836 11.1184171 30.9375 21.125 C31.97498672 22.73941847 32.99776055 24.36346654 34 26 C34.39832031 26.58265625 34.79664063 27.1653125 35.20703125 27.765625 C39.77662298 34.81683022 41.06526169 43.7743029 42 52 C42.66 52 43.32 52 44 52 C44.92188461 54.76565382 45.11785222 56.38283702 45.09765625 59.23046875 C45.09443359 60.03291016 45.09121094 60.83535156 45.08789062 61.66210938 C45.07951172 62.49548828 45.07113281 63.32886719 45.0625 64.1875 C45.05573242 65.4549707 45.05573242 65.4549707 45.04882812 66.74804688 C45.03705403 68.83206155 45.0191189 70.91603977 45 73 C43.90300781 73.40992188 42.80601562 73.81984375 41.67578125 74.2421875 C40.22134314 74.78642886 38.76691667 75.33070133 37.3125 75.875 C36.59126953 76.14441406 35.87003906 76.41382813 35.12695312 76.69140625 C34.42119141 76.95566406 33.71542969 77.21992188 32.98828125 77.4921875 C32.34415283 77.73308105 31.70002441 77.97397461 31.03637695 78.22216797 C28.68024716 79.12213554 26.33976739 80.05840796 24 81 C23.94054199 79.64189209 23.94054199 79.64189209 23.87988281 78.25634766 C22.62122375 40.62122389 22.62122375 40.62122389 7 7 C5.35 5.68 3.7 4.36 2 3 C2 26.1 2 49.2 2 73 C2.66 73.33 3.32 73.66 4 74 C2.76636719 75.03447266 2.76636719 75.03447266 1.5078125 76.08984375 C-22.60963497 96.36258599 -41.99691744 117.75867098 -53.80859375 147.3046875 C-55 150 -55 150 -57 152 C-59.94823851 152.60106799 -62.83676725 153.08767771 -65.8125 153.5 C-66.69236572 153.62745605 -67.57223145 153.75491211 -68.47875977 153.88623047 C-75.99980111 154.94006664 -83.54070465 155.70577376 -91.10668945 156.35351562 C-91.93644287 156.42505859 -92.76619629 156.49660156 -93.62109375 156.5703125 C-94.3473999 156.62977051 -95.07370605 156.68922852 -95.82202148 156.75048828 C-98.23488018 157.02690814 -100.61852199 157.5237044 -103 158 C-103 184.73 -103 211.46 -103 239 C-84.98987457 241.2605418 -84.98987457 241.2605418 -67.31860352 242.46386719 C-55.01755246 243.15183377 -55.01755246 243.15183377 -51.30175781 246.55566406 C-48.54253904 250.58516469 -47.2293574 255.07948759 -45.82080078 259.71337891 C-44.46101186 263.50153566 -42.29473926 266.65597202 -40 269.9375 C-39.57267578 270.55826416 -39.14535156 271.17902832 -38.70507812 271.81860352 C-19.21596759 299.74625942 7.3123892 322.98544557 39 336 C39 336.66 39 337.32 39 338 C34.52761347 336.58192622 30.28853694 334.88695626 26 333 C25.67 333.66 25.34 334.32 25 335 C24.80921875 334.42378906 24.6184375 333.84757812 24.421875 333.25390625 C22.39924988 330.04771204 19.48833887 328.71321953 16.25 326.9375 C4.36647126 320.11326694 -6.07716064 311.42291005 -16 302 C-16.75579346 301.28505371 -16.75579346 301.28505371 -17.52685547 300.55566406 C-33.1124061 285.71451191 -45.19890311 268.71995771 -54 249 C-54 248.34 -54 247.68 -54 247 C-55.27488281 246.89042969 -56.54976562 246.78085937 -57.86328125 246.66796875 C-68.8145022 245.71021425 -79.75545999 244.65650675 -90.6875 243.5 C-92.45057495 243.32247192 -92.45057495 243.32247192 -94.24926758 243.14135742 C-95.34650146 243.02252197 -96.44373535 242.90368652 -97.57421875 242.78125 C-99.03734497 242.6275293 -99.03734497 242.6275293 -100.5300293 242.47070312 C-103 242 -103 242 -106 240 C-106.30234442 237.35445603 -106.40948993 234.94166424 -106.38818359 232.29321289 C-106.39344055 231.49794693 -106.39869751 230.70268097 -106.40411377 229.88331604 C-106.41735125 227.24623146 -106.40856184 224.60974731 -106.3984375 221.97265625 C-106.40045736 220.14424015 -106.40336807 218.31582483 -106.40713501 216.4874115 C-106.4115636 212.65144191 -106.40511091 208.81568162 -106.39111328 204.97973633 C-106.37403311 200.05871675 -106.38385173 195.13818841 -106.40183067 190.21718693 C-106.4126644 186.43997996 -106.40922386 182.6628897 -106.4014473 178.88567924 C-106.39944352 177.07116068 -106.40191076 175.25663158 -106.40888596 173.44212532 C-106.4164924 170.90652485 -106.40490747 168.37172256 -106.38818359 165.83618164 C-106.39425629 165.083349 -106.40032898 164.33051636 -106.40658569 163.55487061 C-106.34488965 158.51390021 -106.34488965 158.51390021 -104.69364929 156.05348206 C-101.7911672 154.24808302 -98.51465959 154.17696876 -95.18359375 153.8671875 C-94.41249771 153.78501984 -93.64140167 153.70285217 -92.84693909 153.61819458 C-90.37823009 153.35806495 -87.90811279 153.11630559 -85.4375 152.875 C-83.80130706 152.70563258 -82.16523714 152.53507216 -80.52929688 152.36328125 C-76.68738659 151.96270846 -72.84429482 151.57596079 -69.00018311 151.19714355 C-66.2823158 150.92926307 -63.56501053 150.65584122 -60.84765625 150.3828125 C-59.57792969 150.25648438 -58.30820313 150.13015625 -57 150 C-56.67 148.845 -56.34 147.69 -56 146.5 C-48.48543005 124.20095057 -33.69412509 105.63433421 -17.375 89.125 C-16.47938354 88.21524414 -16.47938354 88.21524414 -15.56567383 87.28710938 C-14.97423584 86.69994141 -14.38279785 86.11277344 -13.7734375 85.5078125 C-13.21011719 84.94700485 -12.64679688 84.3861972 -12.06640625 83.80839539 C-10 82 -10 82 -7.70133972 80.727005 C-4.85308751 79.06978303 -3.03789292 77.60854132 -1 75 C0.33761983 69.31183941 0.19011705 63.72596088 0.09765625 57.91015625 C0.10331388 56.23862463 0.11293076 54.56710214 0.12632751 52.89561462 C0.15087924 48.51376466 0.12191412 44.13386588 0.08154297 39.75219727 C0.04983878 35.27418442 0.06909932 30.79641683 0.08398438 26.31835938 C0.10567915 17.54501777 0.07080116 8.77308059 0 0 Z " fill="#174057" transform="translate(152,106)"/>
<path d="M0 0 C3.81583379 0.65179251 6.02881405 1.46898975 9 4 C6.69 3.67 4.38 3.34 2 3 C2 26.1 2 49.2 2 73 C2.66 73.33 3.32 73.66 4 74 C2.76636719 75.03447266 2.76636719 75.03447266 1.5078125 76.08984375 C-22.60963497 96.36258599 -41.99691744 117.75867098 -53.80859375 147.3046875 C-55 150 -55 150 -57 152 C-59.94823851 152.60106799 -62.83676725 153.08767771 -65.8125 153.5 C-66.69236572 153.62745605 -67.57223145 153.75491211 -68.47875977 153.88623047 C-75.99980111 154.94006664 -83.54070465 155.70577376 -91.10668945 156.35351562 C-91.93644287 156.42505859 -92.76619629 156.49660156 -93.62109375 156.5703125 C-94.3473999 156.62977051 -95.07370605 156.68922852 -95.82202148 156.75048828 C-98.23488018 157.02690814 -100.61852199 157.5237044 -103 158 C-103 184.73 -103 211.46 -103 239 C-84.98987457 241.2605418 -84.98987457 241.2605418 -67.31860352 242.46386719 C-55.01755246 243.15183377 -55.01755246 243.15183377 -51.30175781 246.55566406 C-48.54253904 250.58516469 -47.2293574 255.07948759 -45.82080078 259.71337891 C-44.46101186 263.50153566 -42.29473926 266.65597202 -40 269.9375 C-39.57267578 270.55826416 -39.14535156 271.17902832 -38.70507812 271.81860352 C-19.21596759 299.74625942 7.3123892 322.98544557 39 336 C39 336.66 39 337.32 39 338 C34.52761347 336.58192622 30.28853694 334.88695626 26 333 C25.67 333.66 25.34 334.32 25 335 C24.80921875 334.42378906 24.6184375 333.84757812 24.421875 333.25390625 C22.39924988 330.04771204 19.48833887 328.71321953 16.25 326.9375 C4.36647126 320.11326694 -6.07716064 311.42291005 -16 302 C-16.75579346 301.28505371 -16.75579346 301.28505371 -17.52685547 300.55566406 C-33.1124061 285.71451191 -45.19890311 268.71995771 -54 249 C-54 248.34 -54 247.68 -54 247 C-55.27488281 246.89042969 -56.54976562 246.78085937 -57.86328125 246.66796875 C-68.8145022 245.71021425 -79.75545999 244.65650675 -90.6875 243.5 C-92.45057495 243.32247192 -92.45057495 243.32247192 -94.24926758 243.14135742 C-95.34650146 243.02252197 -96.44373535 242.90368652 -97.57421875 242.78125 C-99.03734497 242.6275293 -99.03734497 242.6275293 -100.5300293 242.47070312 C-103 242 -103 242 -106 240 C-106.30234442 237.35445603 -106.40948993 234.94166424 -106.38818359 232.29321289 C-106.39344055 231.49794693 -106.39869751 230.70268097 -106.40411377 229.88331604 C-106.41735125 227.24623146 -106.40856184 224.60974731 -106.3984375 221.97265625 C-106.40045736 220.14424015 -106.40336807 218.31582483 -106.40713501 216.4874115 C-106.4115636 212.65144191 -106.40511091 208.81568162 -106.39111328 204.97973633 C-106.37403311 200.05871675 -106.38385173 195.13818841 -106.40183067 190.21718693 C-106.4126644 186.43997996 -106.40922386 182.6628897 -106.4014473 178.88567924 C-106.39944352 177.07116068 -106.40191076 175.25663158 -106.40888596 173.44212532 C-106.4164924 170.90652485 -106.40490747 168.37172256 -106.38818359 165.83618164 C-106.39425629 165.083349 -106.40032898 164.33051636 -106.40658569 163.55487061 C-106.34488965 158.51390021 -106.34488965 158.51390021 -104.69364929 156.05348206 C-101.7911672 154.24808302 -98.51465959 154.17696876 -95.18359375 153.8671875 C-94.41249771 153.78501984 -93.64140167 153.70285217 -92.84693909 153.61819458 C-90.37823009 153.35806495 -87.90811279 153.11630559 -85.4375 152.875 C-83.80130706 152.70563258 -82.16523714 152.53507216 -80.52929688 152.36328125 C-76.68738659 151.96270846 -72.84429482 151.57596079 -69.00018311 151.19714355 C-66.2823158 150.92926307 -63.56501053 150.65584122 -60.84765625 150.3828125 C-59.57792969 150.25648438 -58.30820313 150.13015625 -57 150 C-56.67 148.845 -56.34 147.69 -56 146.5 C-48.48543005 124.20095057 -33.69412509 105.63433421 -17.375 89.125 C-16.47938354 88.21524414 -16.47938354 88.21524414 -15.56567383 87.28710938 C-14.97423584 86.69994141 -14.38279785 86.11277344 -13.7734375 85.5078125 C-13.21011719 84.94700485 -12.64679688 84.3861972 -12.06640625 83.80839539 C-10 82 -10 82 -7.70133972 80.727005 C-4.85308751 79.06978303 -3.03789292 77.60854132 -1 75 C0.33761983 69.31183941 0.19011705 63.72596088 0.09765625 57.91015625 C0.10331388 56.23862463 0.11293076 54.56710214 0.12632751 52.89561462 C0.15087924 48.51376466 0.12191412 44.13386588 0.08154297 39.75219727 C0.04983878 35.27418442 0.06909932 30.79641683 0.08398438 26.31835938 C0.10567915 17.54501777 0.07080116 8.77308059 0 0 Z " fill="#08141D" transform="translate(152,106)"/>
<path d="M0 0 C5.64911319 1.38345629 8.90915109 4.96416942 12 9.75 C14.52619769 16.85493102 14.2211962 25.85908313 11.4375 32.8125 C9.27408054 36.89557335 6.99607715 39.31118216 3.0625 41.75 C0.125 42.5625 0.125 42.5625 -2.9375 41.75 C-7.384299 37.95577109 -10.92739551 33.58615927 -11.9375 27.75 C-12.56818404 19.60950414 -12.44597238 11.74879693 -7.61328125 4.86328125 C-5.20206151 2.1482858 -3.55377032 0.90734561 0 0 Z " fill="#163250" transform="translate(149.9375,221.25)"/>
<path d="M0 0 C1.32 0.33 2.64 0.66 4 1 C4 2.65 4 4.3 4 6 C6.475 6.495 6.475 6.495 9 7 C9.33 8.65 9.66 10.3 10 12 C9.34 11.835 8.68 11.67 8 11.5 C4.24365885 10.87394314 0.80886246 10.87303792 -3 11 C-4.21615968 12.04466109 -4.21615968 12.04466109 -4.5625 14.25 C-4.29243049 17.0354528 -4.29243049 17.0354528 -2.42578125 18.30078125 C-0.31540271 19.59916652 1.82773913 20.80838207 4 22 C9.74468085 25.61702128 9.74468085 25.61702128 12 29 C12.59733675 33.52269254 12.33015315 35.47563912 9.875 39.375 C6.74772093 42.23034176 5.16210575 42.80641369 1 43 C0.505 45.475 0.505 45.475 0 48 C-1.32 47.67 -2.64 47.34 -4 47 C-4 45.68 -4 44.36 -4 43 C-4.78375 42.87625 -5.5675 42.7525 -6.375 42.625 C-9 42 -9 42 -11 40 C-11 38.68 -11 37.36 -11 36 C-10.175 36.33 -9.35 36.66 -8.5 37 C-4.11812346 38.25196473 0.7617491 39.11912545 5 37 C5.53270522 33.67673591 5.53270522 33.67673591 5 30 C2.79403703 28.17619681 1.12389601 27.05931204 -1.375 25.8125 C-7.63919047 22.52647701 -7.63919047 22.52647701 -9.38671875 19.9765625 C-10.37911306 16.77814518 -10.40818377 14.32378209 -10 11 C-7.45862841 7.84045695 -5.85377341 6.28459114 -2 5 C-0.78130071 2.49552484 -0.78130071 2.49552484 0 0 Z " fill="#BEAB00" transform="translate(305,66)"/>
<path d="M0 0 C8.01535249 0.52460998 15.15035915 2.65165772 22.75 5.1875 C23.39673676 5.40286407 24.04347351 5.61822815 24.70980835 5.84011841 C46.03204181 13.01006097 66.75159985 22.7670057 85 36 C85.58088379 36.41701172 86.16176758 36.83402344 86.76025391 37.26367188 C97.44942248 45.0079579 107.73106496 53.6638312 116 64 C112.80554305 62.60286388 110.81065188 60.97467102 108.4375 58.4375 C79.45573411 28.8152531 39.13943928 12.04575946 0 1 C0 0.67 0 0.34 0 0 Z " fill="#0A1924" transform="translate(373,139)"/>
<path d="M0 0 C-4.02493932 1.82181464 -8.12692694 2.81574559 -12.40063477 3.85229492 C-27.96584163 7.64865501 -43.79366547 12.45363343 -58 20 C-58.69821417 17.89936424 -59.38324472 15.79434263 -60.0625 13.6875 C-60.44535156 12.51574219 -60.82820312 11.34398437 -61.22265625 10.13671875 C-62 7 -62 7 -61 4 C-59.35 7.96 -57.7 11.92 -56 16 C-54.43894531 15.34773438 -52.87789062 14.69546875 -51.26953125 14.0234375 C-9.37698106 -3.24587806 -9.37698106 -3.24587806 0 0 Z " fill="#0C1E2B" transform="translate(252,138)"/>
<path d="M0 0 C4.47851553 0.89570311 5.77175056 1.25000973 9 4 C6.69 3.67 4.38 3.34 2 3 C2 26.1 2 49.2 2 73 C1.67 73 1.34 73 1 73 C0.67 48.91 0.34 24.82 0 0 Z " fill="#0E2232" transform="translate(152,106)"/>
<path d="M0 0 C4.81030288 1.51619303 7.9731181 4.22987329 11.6875 7.5 C12.29674316 8.02883789 12.90598633 8.55767578 13.53369141 9.10253906 C18.93061508 13.83529134 24.02784949 18.82163127 29 24 C26 24 26 24 24.125 22.34765625 C23.42375 21.59355469 22.7225 20.83945313 22 20.0625 C17.0173525 14.90102991 11.60511504 10.46333235 6 6 C3.97034268 4.3606614 1.97368899 2.70697426 0 1 C0 0.67 0 0.34 0 0 Z " fill="#07121A" transform="translate(460,178)"/>
<path d="M0 0 C-3.44450737 2.29633824 -5.93812283 2.54016485 -10 3 C-10 5.64 -10 8.28 -10 11 C-10.33 11 -10.66 11 -11 11 C-11.33 8.03 -11.66 5.06 -12 2 C-10.56656 1.46809459 -9.12804633 0.94984742 -7.6875 0.4375 C-6.48673828 0.00244141 -6.48673828 0.00244141 -5.26171875 -0.44140625 C-3 -1 -3 -1 0 0 Z " fill="#091A24" transform="translate(364,465)"/>
<path d="M0 0 C0.99 0.33 1.98 0.66 3 1 C1.3970551 2.29318256 -0.20740142 3.58449156 -1.8125 4.875 C-2.70582031 5.59429687 -3.59914062 6.31359375 -4.51953125 7.0546875 C-7 9 -7 9 -10 11 C-10 10.01 -10 9.02 -10 8 C-7.91796875 5.921875 -7.91796875 5.921875 -5.1875 3.75 C-4.29417969 3.02296875 -3.40085938 2.2959375 -2.48046875 1.546875 C-1.25263672 0.78117188 -1.25263672 0.78117188 0 0 Z " fill="#0A1925" transform="translate(151,181)"/>
<path d="M0 0 C0.99 0.33 1.98 0.66 3 1 C2.67 2.65 2.34 4.3 2 6 C1.01 6 0.02 6 -1 6 C-1.042721 4.33388095 -1.04063832 2.66617115 -1 1 C-0.67 0.67 -0.34 0.34 0 0 Z " fill="#23597B" transform="translate(542,283)"/>
</svg>
